<mxfile host="Electron" agent="Mozilla/5.0 (Windows NT 10.0; Win64; x64) AppleWebKit/537.36 (KHTML, like Gecko) draw.io/24.7.17 Chrome/128.0.6613.36 Electron/32.0.1 Safari/537.36" version="24.7.17">
  <diagram name="PÃ¡gina-1" id="hJLhgNZL0Z0Mp03p45sU">
    <mxGraphModel dx="2283" dy="727" grid="1" gridSize="10" guides="1" tooltips="1" connect="1" arrows="1" fold="1" page="1" pageScale="1" pageWidth="827" pageHeight="1169" math="0" shadow="0">
      <root>
        <mxCell id="0" />
        <mxCell id="1" parent="0" />
        <mxCell id="AW41BKSZvpYnNZ8wh0pO-1" value="" style="shape=umlLifeline;perimeter=lifelinePerimeter;whiteSpace=wrap;html=1;container=1;dropTarget=0;collapsible=0;recursiveResize=0;outlineConnect=0;portConstraint=eastwest;newEdgeStyle={&quot;curved&quot;:0,&quot;rounded&quot;:0};participant=umlActor;" parent="1" vertex="1">
          <mxGeometry x="140" y="90" width="20" height="1200" as="geometry" />
        </mxCell>
        <mxCell id="40E514p9lk34ZQ-6T4XH-21" value="" style="html=1;points=[[0,0,0,0,5],[0,1,0,0,-5],[1,0,0,0,5],[1,1,0,0,-5]];perimeter=orthogonalPerimeter;outlineConnect=0;targetShapes=umlLifeline;portConstraint=eastwest;newEdgeStyle={&quot;curved&quot;:0,&quot;rounded&quot;:0};" parent="AW41BKSZvpYnNZ8wh0pO-1" vertex="1">
          <mxGeometry x="5" y="85" width="10" height="1115" as="geometry" />
        </mxCell>
        <mxCell id="AW41BKSZvpYnNZ8wh0pO-5" value="" style="shape=umlLifeline;perimeter=lifelinePerimeter;whiteSpace=wrap;html=1;container=1;dropTarget=0;collapsible=0;recursiveResize=0;outlineConnect=0;portConstraint=eastwest;newEdgeStyle={&quot;curved&quot;:0,&quot;rounded&quot;:0};participant=umlControl;" parent="1" vertex="1">
          <mxGeometry x="365" y="80" width="40" height="1210" as="geometry" />
        </mxCell>
        <mxCell id="40E514p9lk34ZQ-6T4XH-10" value="" style="html=1;points=[[0,0,0,0,5],[0,1,0,0,-5],[1,0,0,0,5],[1,1,0,0,-5]];perimeter=orthogonalPerimeter;outlineConnect=0;targetShapes=umlLifeline;portConstraint=eastwest;newEdgeStyle={&quot;curved&quot;:0,&quot;rounded&quot;:0};" parent="AW41BKSZvpYnNZ8wh0pO-5" vertex="1">
          <mxGeometry x="15" y="96" width="10" height="80" as="geometry" />
        </mxCell>
        <mxCell id="40E514p9lk34ZQ-6T4XH-29" value="" style="html=1;points=[[0,0,0,0,5],[0,1,0,0,-5],[1,0,0,0,5],[1,1,0,0,-5]];perimeter=orthogonalPerimeter;outlineConnect=0;targetShapes=umlLifeline;portConstraint=eastwest;newEdgeStyle={&quot;curved&quot;:0,&quot;rounded&quot;:0};" parent="AW41BKSZvpYnNZ8wh0pO-5" vertex="1">
          <mxGeometry x="15.20999999999998" y="291" width="10" height="60" as="geometry" />
        </mxCell>
        <mxCell id="40E514p9lk34ZQ-6T4XH-30" value="editExtra" style="html=1;verticalAlign=bottom;endArrow=block;curved=0;rounded=0;entryX=0;entryY=0;entryDx=0;entryDy=5;" parent="AW41BKSZvpYnNZ8wh0pO-5" edge="1">
          <mxGeometry relative="1" as="geometry">
            <mxPoint x="-95" y="290" as="sourcePoint" />
            <mxPoint x="15.20999999999998" y="290" as="targetPoint" />
          </mxGeometry>
        </mxCell>
        <mxCell id="40E514p9lk34ZQ-6T4XH-31" value="returnModification" style="html=1;verticalAlign=bottom;endArrow=open;dashed=1;endSize=8;curved=0;rounded=0;exitX=0;exitY=1;exitDx=0;exitDy=-5;" parent="AW41BKSZvpYnNZ8wh0pO-5" source="40E514p9lk34ZQ-6T4XH-29" edge="1">
          <mxGeometry relative="1" as="geometry">
            <mxPoint x="-95" y="346" as="targetPoint" />
          </mxGeometry>
        </mxCell>
        <mxCell id="40E514p9lk34ZQ-6T4XH-33" value="" style="html=1;points=[[0,0,0,0,5],[0,1,0,0,-5],[1,0,0,0,5],[1,1,0,0,-5]];perimeter=orthogonalPerimeter;outlineConnect=0;targetShapes=umlLifeline;portConstraint=eastwest;newEdgeStyle={&quot;curved&quot;:0,&quot;rounded&quot;:0};" parent="AW41BKSZvpYnNZ8wh0pO-5" vertex="1">
          <mxGeometry x="15.20999999999998" y="410.31" width="10" height="60" as="geometry" />
        </mxCell>
        <mxCell id="40E514p9lk34ZQ-6T4XH-34" value="editExtra" style="html=1;verticalAlign=bottom;endArrow=block;curved=0;rounded=0;entryX=0;entryY=0;entryDx=0;entryDy=5;" parent="AW41BKSZvpYnNZ8wh0pO-5" edge="1">
          <mxGeometry relative="1" as="geometry">
            <mxPoint x="-95" y="409.31" as="sourcePoint" />
            <mxPoint x="15.20999999999998" y="409.31" as="targetPoint" />
          </mxGeometry>
        </mxCell>
        <mxCell id="40E514p9lk34ZQ-6T4XH-35" value="returnModification" style="html=1;verticalAlign=bottom;endArrow=open;dashed=1;endSize=8;curved=0;rounded=0;exitX=0;exitY=1;exitDx=0;exitDy=-5;" parent="AW41BKSZvpYnNZ8wh0pO-5" source="40E514p9lk34ZQ-6T4XH-33" edge="1">
          <mxGeometry relative="1" as="geometry">
            <mxPoint x="-95" y="465.30999999999995" as="targetPoint" />
          </mxGeometry>
        </mxCell>
        <mxCell id="40E514p9lk34ZQ-6T4XH-36" value="multipleChoice" style="html=1;verticalAlign=bottom;endArrow=block;curved=0;rounded=0;entryX=0;entryY=0;entryDx=0;entryDy=5;" parent="AW41BKSZvpYnNZ8wh0pO-5" edge="1">
          <mxGeometry relative="1" as="geometry">
            <mxPoint x="-210" y="394.31" as="sourcePoint" />
            <mxPoint x="-105" y="394.31" as="targetPoint" />
          </mxGeometry>
        </mxCell>
        <mxCell id="40E514p9lk34ZQ-6T4XH-37" value="showEdit" style="html=1;verticalAlign=bottom;endArrow=open;dashed=1;endSize=8;curved=0;rounded=0;exitX=0;exitY=1;exitDx=0;exitDy=-5;" parent="AW41BKSZvpYnNZ8wh0pO-5" edge="1">
          <mxGeometry relative="1" as="geometry">
            <mxPoint x="-215" y="479.30999999999995" as="targetPoint" />
            <mxPoint x="-105" y="479.30999999999995" as="sourcePoint" />
          </mxGeometry>
        </mxCell>
        <mxCell id="40E514p9lk34ZQ-6T4XH-51" value="" style="html=1;points=[[0,0,0,0,5],[0,1,0,0,-5],[1,0,0,0,5],[1,1,0,0,-5]];perimeter=orthogonalPerimeter;outlineConnect=0;targetShapes=umlLifeline;portConstraint=eastwest;newEdgeStyle={&quot;curved&quot;:0,&quot;rounded&quot;:0};" parent="AW41BKSZvpYnNZ8wh0pO-5" vertex="1">
          <mxGeometry x="15.21" y="620" width="10" height="90" as="geometry" />
        </mxCell>
        <mxCell id="EQx8MTl09Lf4hyHn_s3z-17" value="" style="html=1;points=[[0,0,0,0,5],[0,1,0,0,-5],[1,0,0,0,5],[1,1,0,0,-5]];perimeter=orthogonalPerimeter;outlineConnect=0;targetShapes=umlLifeline;portConstraint=eastwest;newEdgeStyle={&quot;curved&quot;:0,&quot;rounded&quot;:0};" vertex="1" parent="AW41BKSZvpYnNZ8wh0pO-5">
          <mxGeometry x="15.21" y="839" width="10" height="15" as="geometry" />
        </mxCell>
        <mxCell id="EQx8MTl09Lf4hyHn_s3z-30" value="" style="html=1;points=[[0,0,0,0,5],[0,1,0,0,-5],[1,0,0,0,5],[1,1,0,0,-5]];perimeter=orthogonalPerimeter;outlineConnect=0;targetShapes=umlLifeline;portConstraint=eastwest;newEdgeStyle={&quot;curved&quot;:0,&quot;rounded&quot;:0};" vertex="1" parent="AW41BKSZvpYnNZ8wh0pO-5">
          <mxGeometry x="15" y="930" width="10" height="50" as="geometry" />
        </mxCell>
        <mxCell id="EQx8MTl09Lf4hyHn_s3z-39" value="" style="html=1;points=[[0,0,0,0,5],[0,1,0,0,-5],[1,0,0,0,5],[1,1,0,0,-5]];perimeter=orthogonalPerimeter;outlineConnect=0;targetShapes=umlLifeline;portConstraint=eastwest;newEdgeStyle={&quot;curved&quot;:0,&quot;rounded&quot;:0};" vertex="1" parent="AW41BKSZvpYnNZ8wh0pO-5">
          <mxGeometry x="15" y="1030" width="10" height="60" as="geometry" />
        </mxCell>
        <mxCell id="AW41BKSZvpYnNZ8wh0pO-8" value="" style="shape=umlLifeline;perimeter=lifelinePerimeter;whiteSpace=wrap;html=1;container=1;dropTarget=0;collapsible=0;recursiveResize=0;outlineConnect=0;portConstraint=eastwest;newEdgeStyle={&quot;curved&quot;:0,&quot;rounded&quot;:0};participant=umlEntity;" parent="1" vertex="1">
          <mxGeometry x="480" y="80" width="40" height="1210" as="geometry" />
        </mxCell>
        <mxCell id="40E514p9lk34ZQ-6T4XH-16" value="" style="html=1;points=[[0,0,0,0,5],[0,1,0,0,-5],[1,0,0,0,5],[1,1,0,0,-5]];perimeter=orthogonalPerimeter;outlineConnect=0;targetShapes=umlLifeline;portConstraint=eastwest;newEdgeStyle={&quot;curved&quot;:0,&quot;rounded&quot;:0};" parent="AW41BKSZvpYnNZ8wh0pO-8" vertex="1">
          <mxGeometry x="15" y="110" width="10" height="40" as="geometry" />
        </mxCell>
        <mxCell id="40E514p9lk34ZQ-6T4XH-54" value="" style="html=1;points=[[0,0,0,0,5],[0,1,0,0,-5],[1,0,0,0,5],[1,1,0,0,-5]];perimeter=orthogonalPerimeter;outlineConnect=0;targetShapes=umlLifeline;portConstraint=eastwest;newEdgeStyle={&quot;curved&quot;:0,&quot;rounded&quot;:0};" parent="AW41BKSZvpYnNZ8wh0pO-8" vertex="1">
          <mxGeometry x="10" y="630" width="10" height="30" as="geometry" />
        </mxCell>
        <mxCell id="EQx8MTl09Lf4hyHn_s3z-5" value="" style="html=1;points=[[0,0,0,0,5],[0,1,0,0,-5],[1,0,0,0,5],[1,1,0,0,-5]];perimeter=orthogonalPerimeter;outlineConnect=0;targetShapes=umlLifeline;portConstraint=eastwest;newEdgeStyle={&quot;curved&quot;:0,&quot;rounded&quot;:0};" vertex="1" parent="AW41BKSZvpYnNZ8wh0pO-8">
          <mxGeometry x="15" y="730" width="10" height="30" as="geometry" />
        </mxCell>
        <mxCell id="EQx8MTl09Lf4hyHn_s3z-15" value="" style="html=1;points=[[0,0,0,0,5],[0,1,0,0,-5],[1,0,0,0,5],[1,1,0,0,-5]];perimeter=orthogonalPerimeter;outlineConnect=0;targetShapes=umlLifeline;portConstraint=eastwest;newEdgeStyle={&quot;curved&quot;:0,&quot;rounded&quot;:0};" vertex="1" parent="AW41BKSZvpYnNZ8wh0pO-8">
          <mxGeometry x="15" y="817" width="10" height="23" as="geometry" />
        </mxCell>
        <mxCell id="EQx8MTl09Lf4hyHn_s3z-33" value="" style="html=1;points=[[0,0,0,0,5],[0,1,0,0,-5],[1,0,0,0,5],[1,1,0,0,-5]];perimeter=orthogonalPerimeter;outlineConnect=0;targetShapes=umlLifeline;portConstraint=eastwest;newEdgeStyle={&quot;curved&quot;:0,&quot;rounded&quot;:0};" vertex="1" parent="AW41BKSZvpYnNZ8wh0pO-8">
          <mxGeometry x="15" y="940" width="10" height="30" as="geometry" />
        </mxCell>
        <mxCell id="EQx8MTl09Lf4hyHn_s3z-43" value="" style="html=1;points=[[0,0,0,0,5],[0,1,0,0,-5],[1,0,0,0,5],[1,1,0,0,-5]];perimeter=orthogonalPerimeter;outlineConnect=0;targetShapes=umlLifeline;portConstraint=eastwest;newEdgeStyle={&quot;curved&quot;:0,&quot;rounded&quot;:0};" vertex="1" parent="AW41BKSZvpYnNZ8wh0pO-8">
          <mxGeometry x="15" y="1045" width="10" height="35" as="geometry" />
        </mxCell>
        <mxCell id="AW41BKSZvpYnNZ8wh0pO-12" value="" style="shape=umlLifeline;perimeter=lifelinePerimeter;whiteSpace=wrap;html=1;container=1;dropTarget=0;collapsible=0;recursiveResize=0;outlineConnect=0;portConstraint=eastwest;newEdgeStyle={&quot;curved&quot;:0,&quot;rounded&quot;:0};participant=umlBoundary;" parent="1" vertex="1">
          <mxGeometry x="240" y="80" width="50" height="1210" as="geometry" />
        </mxCell>
        <mxCell id="40E514p9lk34ZQ-6T4XH-13" value="" style="html=1;points=[[0,0,0,0,5],[0,1,0,0,-5],[1,0,0,0,5],[1,1,0,0,-5]];perimeter=orthogonalPerimeter;outlineConnect=0;targetShapes=umlLifeline;portConstraint=eastwest;newEdgeStyle={&quot;curved&quot;:0,&quot;rounded&quot;:0};" parent="AW41BKSZvpYnNZ8wh0pO-12" vertex="1">
          <mxGeometry x="20" y="90" width="10" height="100" as="geometry" />
        </mxCell>
        <mxCell id="40E514p9lk34ZQ-6T4XH-14" value="typeCar" style="html=1;verticalAlign=bottom;endArrow=block;curved=0;rounded=0;entryX=0;entryY=0;entryDx=0;entryDy=5;" parent="AW41BKSZvpYnNZ8wh0pO-12" target="40E514p9lk34ZQ-6T4XH-13" edge="1">
          <mxGeometry relative="1" as="geometry">
            <mxPoint x="-90" y="95" as="sourcePoint" />
          </mxGeometry>
        </mxCell>
        <mxCell id="40E514p9lk34ZQ-6T4XH-15" value="showCar" style="html=1;verticalAlign=bottom;endArrow=open;dashed=1;endSize=8;curved=0;rounded=0;exitX=0;exitY=1;exitDx=0;exitDy=-5;" parent="AW41BKSZvpYnNZ8wh0pO-12" edge="1">
          <mxGeometry relative="1" as="geometry">
            <mxPoint x="-80" y="190" as="targetPoint" />
            <mxPoint x="20" y="189.9999999999999" as="sourcePoint" />
          </mxGeometry>
        </mxCell>
        <mxCell id="40E514p9lk34ZQ-6T4XH-22" value="" style="html=1;points=[[0,0,0,0,5],[0,1,0,0,-5],[1,0,0,0,5],[1,1,0,0,-5]];perimeter=orthogonalPerimeter;outlineConnect=0;targetShapes=umlLifeline;portConstraint=eastwest;newEdgeStyle={&quot;curved&quot;:0,&quot;rounded&quot;:0};" parent="AW41BKSZvpYnNZ8wh0pO-12" vertex="1">
          <mxGeometry x="20" y="215" width="10" height="655" as="geometry" />
        </mxCell>
        <mxCell id="EQx8MTl09Lf4hyHn_s3z-22" value="" style="html=1;points=[[0,0,0,0,5],[0,1,0,0,-5],[1,0,0,0,5],[1,1,0,0,-5]];perimeter=orthogonalPerimeter;outlineConnect=0;targetShapes=umlLifeline;portConstraint=eastwest;newEdgeStyle={&quot;curved&quot;:0,&quot;rounded&quot;:0};" vertex="1" parent="AW41BKSZvpYnNZ8wh0pO-12">
          <mxGeometry x="20" y="920" width="10" height="70" as="geometry" />
        </mxCell>
        <mxCell id="EQx8MTl09Lf4hyHn_s3z-36" value="" style="html=1;points=[[0,0,0,0,5],[0,1,0,0,-5],[1,0,0,0,5],[1,1,0,0,-5]];perimeter=orthogonalPerimeter;outlineConnect=0;targetShapes=umlLifeline;portConstraint=eastwest;newEdgeStyle={&quot;curved&quot;:0,&quot;rounded&quot;:0};" vertex="1" parent="AW41BKSZvpYnNZ8wh0pO-12">
          <mxGeometry x="20" y="1020" width="10" height="80" as="geometry" />
        </mxCell>
        <mxCell id="40E514p9lk34ZQ-6T4XH-1" value="View" style="text;html=1;align=center;verticalAlign=middle;resizable=0;points=[];autosize=1;strokeColor=none;fillColor=none;" parent="1" vertex="1">
          <mxGeometry x="245" y="38" width="50" height="30" as="geometry" />
        </mxCell>
        <mxCell id="40E514p9lk34ZQ-6T4XH-3" value="Controller" style="text;html=1;align=center;verticalAlign=middle;resizable=0;points=[];autosize=1;strokeColor=none;fillColor=none;" parent="1" vertex="1">
          <mxGeometry x="340" y="38" width="80" height="30" as="geometry" />
        </mxCell>
        <mxCell id="40E514p9lk34ZQ-6T4XH-4" value="EntidadVehÃ­culo" style="text;html=1;align=center;verticalAlign=middle;resizable=0;points=[];autosize=1;strokeColor=none;fillColor=none;" parent="1" vertex="1">
          <mxGeometry x="445" y="38" width="110" height="30" as="geometry" />
        </mxCell>
        <mxCell id="40E514p9lk34ZQ-6T4XH-5" value="&amp;nbsp;" style="text;html=1;align=center;verticalAlign=middle;resizable=0;points=[];autosize=1;strokeColor=none;fillColor=none;" parent="1" vertex="1">
          <mxGeometry x="715" y="108" width="30" height="30" as="geometry" />
        </mxCell>
        <mxCell id="40E514p9lk34ZQ-6T4XH-6" value="&lt;h1 style=&quot;margin-top: 0px;&quot;&gt;&lt;br&gt;&lt;/h1&gt;&lt;p&gt;&lt;br&gt;&lt;/p&gt;&lt;p&gt;o A partir de este punto:&lt;br&gt;1. Si el cliente ya estuviera dado de alta el sistema crearÃ¡ un&lt;br&gt;nuevo alquiler y buscarÃ¡ los datos bancarios del cliente. En&lt;br&gt;caso de que no haya datos registrados se le pedirÃ¡n al usuario.&lt;/p&gt;&lt;p&gt;&lt;br&gt;2. Si el cliente no estuviera dado de alta, se le darÃ­a de alta en&lt;br&gt;primer lugar para despuÃ©s continuar el proceso tal y como se&lt;br&gt;explica en el apartado anterior.&lt;/p&gt;&lt;p&gt;&lt;br&gt;o Con los datos bancarios ya introducidos se procede al pago. Tras&lt;br&gt;realizarse el pago de forma correcta, se persistirÃ¡n los datos del&lt;br&gt;alquiler en base de datos y se informarÃ¡ al usuario que se ha&lt;br&gt;terminado el proceso de forma correcta.&lt;/p&gt;" style="text;html=1;whiteSpace=wrap;overflow=hidden;rounded=0;" parent="1" vertex="1">
          <mxGeometry x="-480" y="690" width="363" height="300" as="geometry" />
        </mxCell>
        <mxCell id="40E514p9lk34ZQ-6T4XH-8" value="Responsable" style="text;html=1;align=center;verticalAlign=middle;resizable=0;points=[];autosize=1;strokeColor=none;fillColor=none;" parent="1" vertex="1">
          <mxGeometry x="105" y="50" width="90" height="30" as="geometry" />
        </mxCell>
        <mxCell id="40E514p9lk34ZQ-6T4XH-11" value="askList" style="html=1;verticalAlign=bottom;endArrow=block;curved=0;rounded=0;entryX=0;entryY=0;entryDx=0;entryDy=5;" parent="1" source="40E514p9lk34ZQ-6T4XH-13" target="40E514p9lk34ZQ-6T4XH-10" edge="1">
          <mxGeometry relative="1" as="geometry">
            <mxPoint x="310" y="175" as="sourcePoint" />
          </mxGeometry>
        </mxCell>
        <mxCell id="40E514p9lk34ZQ-6T4XH-12" value="returnList" style="html=1;verticalAlign=bottom;endArrow=open;dashed=1;endSize=8;curved=0;rounded=0;exitX=0;exitY=1;exitDx=0;exitDy=-5;" parent="1" source="40E514p9lk34ZQ-6T4XH-10" target="AW41BKSZvpYnNZ8wh0pO-12" edge="1">
          <mxGeometry relative="1" as="geometry">
            <mxPoint x="310" y="245" as="targetPoint" />
          </mxGeometry>
        </mxCell>
        <mxCell id="40E514p9lk34ZQ-6T4XH-17" value="" style="endArrow=block;endFill=1;html=1;edgeStyle=orthogonalEdgeStyle;align=left;verticalAlign=top;rounded=0;" parent="1" edge="1">
          <mxGeometry x="-1" relative="1" as="geometry">
            <mxPoint x="390" y="190.03" as="sourcePoint" />
            <mxPoint x="490" y="190.03" as="targetPoint" />
            <Array as="points">
              <mxPoint x="465" y="190.03" />
              <mxPoint x="465" y="190.03" />
            </Array>
            <mxPoint as="offset" />
          </mxGeometry>
        </mxCell>
        <mxCell id="40E514p9lk34ZQ-6T4XH-18" value="" style="endArrow=open;endFill=1;endSize=12;html=1;rounded=0;exitX=0;exitY=1;exitDx=0;exitDy=-5;exitPerimeter=0;" parent="1" edge="1">
          <mxGeometry width="160" relative="1" as="geometry">
            <mxPoint x="495" y="229.92" as="sourcePoint" />
            <mxPoint x="390" y="230" as="targetPoint" />
          </mxGeometry>
        </mxCell>
        <mxCell id="40E514p9lk34ZQ-6T4XH-19" value="returnList" style="text;html=1;align=center;verticalAlign=middle;resizable=0;points=[];autosize=1;strokeColor=none;fillColor=none;" parent="1" vertex="1">
          <mxGeometry x="410" y="200" width="70" height="30" as="geometry" />
        </mxCell>
        <mxCell id="40E514p9lk34ZQ-6T4XH-20" value="getList" style="text;html=1;align=center;verticalAlign=middle;resizable=0;points=[];autosize=1;strokeColor=none;fillColor=none;" parent="1" vertex="1">
          <mxGeometry x="410" y="158" width="60" height="30" as="geometry" />
        </mxCell>
        <mxCell id="40E514p9lk34ZQ-6T4XH-23" value="selectCar" style="html=1;verticalAlign=bottom;endArrow=block;curved=0;rounded=0;entryX=0;entryY=0;entryDx=0;entryDy=5;" parent="1" source="AW41BKSZvpYnNZ8wh0pO-1" target="40E514p9lk34ZQ-6T4XH-22" edge="1">
          <mxGeometry relative="1" as="geometry">
            <mxPoint x="190" y="300" as="sourcePoint" />
          </mxGeometry>
        </mxCell>
        <mxCell id="40E514p9lk34ZQ-6T4XH-24" value="showExtras" style="html=1;verticalAlign=bottom;endArrow=open;dashed=1;endSize=8;curved=0;rounded=0;exitX=0;exitY=1;exitDx=0;exitDy=-5;" parent="1" edge="1">
          <mxGeometry relative="1" as="geometry">
            <mxPoint x="149.81034482758605" y="319.65999999999997" as="targetPoint" />
            <mxPoint x="260" y="319.65999999999997" as="sourcePoint" />
          </mxGeometry>
        </mxCell>
        <mxCell id="40E514p9lk34ZQ-6T4XH-25" value="alt" style="shape=umlFrame;whiteSpace=wrap;html=1;pointerEvents=0;" parent="1" vertex="1">
          <mxGeometry x="115" y="340" width="325" height="340" as="geometry" />
        </mxCell>
        <mxCell id="40E514p9lk34ZQ-6T4XH-27" value="selectOne" style="html=1;verticalAlign=bottom;endArrow=block;curved=0;rounded=0;entryX=0;entryY=0;entryDx=0;entryDy=5;" parent="1" source="40E514p9lk34ZQ-6T4XH-21" edge="1">
          <mxGeometry relative="1" as="geometry">
            <mxPoint x="190" y="355" as="sourcePoint" />
            <mxPoint x="260" y="355" as="targetPoint" />
          </mxGeometry>
        </mxCell>
        <mxCell id="40E514p9lk34ZQ-6T4XH-28" value="showEdit" style="html=1;verticalAlign=bottom;endArrow=open;dashed=1;endSize=8;curved=0;rounded=0;exitX=0;exitY=1;exitDx=0;exitDy=-5;" parent="1" target="AW41BKSZvpYnNZ8wh0pO-1" edge="1">
          <mxGeometry relative="1" as="geometry">
            <mxPoint x="170" y="440" as="targetPoint" />
            <mxPoint x="260" y="440" as="sourcePoint" />
          </mxGeometry>
        </mxCell>
        <mxCell id="40E514p9lk34ZQ-6T4XH-39" value="noChange" style="html=1;verticalAlign=bottom;endArrow=block;curved=0;rounded=0;entryX=0;entryY=0;entryDx=0;entryDy=5;" parent="1" edge="1">
          <mxGeometry relative="1" as="geometry">
            <mxPoint x="160" y="605" as="sourcePoint" />
            <mxPoint x="260" y="605" as="targetPoint" />
          </mxGeometry>
        </mxCell>
        <mxCell id="40E514p9lk34ZQ-6T4XH-40" value="completeRental?" style="html=1;verticalAlign=bottom;endArrow=open;dashed=1;endSize=8;curved=0;rounded=0;exitX=0;exitY=1;exitDx=0;exitDy=-5;" parent="1" edge="1">
          <mxGeometry relative="1" as="geometry">
            <mxPoint x="160" y="640" as="targetPoint" />
            <mxPoint x="260" y="640" as="sourcePoint" />
          </mxGeometry>
        </mxCell>
        <mxCell id="40E514p9lk34ZQ-6T4XH-41" value="" style="line;strokeWidth=1;fillColor=none;align=left;verticalAlign=middle;spacingTop=-1;spacingLeft=3;spacingRight=3;rotatable=0;labelPosition=right;points=[];portConstraint=eastwest;strokeColor=inherit;" parent="1" vertex="1">
          <mxGeometry x="115" y="450" width="325" height="8" as="geometry" />
        </mxCell>
        <mxCell id="40E514p9lk34ZQ-6T4XH-42" value="" style="line;strokeWidth=1;fillColor=none;align=left;verticalAlign=middle;spacingTop=-1;spacingLeft=3;spacingRight=3;rotatable=0;labelPosition=right;points=[];portConstraint=eastwest;strokeColor=inherit;" parent="1" vertex="1">
          <mxGeometry x="115" y="570" width="325" height="8" as="geometry" />
        </mxCell>
        <mxCell id="40E514p9lk34ZQ-6T4XH-43" value="C1" style="text;html=1;align=center;verticalAlign=middle;resizable=0;points=[];autosize=1;strokeColor=none;fillColor=none;" parent="1" vertex="1">
          <mxGeometry x="110" y="370" width="40" height="30" as="geometry" />
        </mxCell>
        <mxCell id="40E514p9lk34ZQ-6T4XH-44" value="C2" style="text;html=1;align=center;verticalAlign=middle;resizable=0;points=[];autosize=1;strokeColor=none;fillColor=none;" parent="1" vertex="1">
          <mxGeometry x="110" y="450" width="40" height="30" as="geometry" />
        </mxCell>
        <mxCell id="40E514p9lk34ZQ-6T4XH-45" value="Else" style="text;html=1;align=center;verticalAlign=middle;resizable=0;points=[];autosize=1;strokeColor=none;fillColor=none;" parent="1" vertex="1">
          <mxGeometry x="105" y="570" width="50" height="30" as="geometry" />
        </mxCell>
        <mxCell id="40E514p9lk34ZQ-6T4XH-47" value="" style="html=1;verticalAlign=bottom;endArrow=block;curved=0;rounded=0;entryX=0;entryY=0;entryDx=0;entryDy=5;" parent="1" edge="1">
          <mxGeometry x="0.2" y="10" relative="1" as="geometry">
            <mxPoint x="160" y="670" as="sourcePoint" />
            <mxPoint x="260" y="670" as="targetPoint" />
            <mxPoint as="offset" />
          </mxGeometry>
        </mxCell>
        <mxCell id="40E514p9lk34ZQ-6T4XH-49" value="completeRental" style="text;html=1;align=center;verticalAlign=middle;resizable=0;points=[];autosize=1;strokeColor=none;fillColor=none;" parent="1" vertex="1">
          <mxGeometry x="150" y="648" width="110" height="30" as="geometry" />
        </mxCell>
        <mxCell id="40E514p9lk34ZQ-6T4XH-52" value="getRegistration" style="html=1;verticalAlign=bottom;endArrow=block;curved=0;rounded=0;entryX=0;entryY=0;entryDx=0;entryDy=5;" parent="1" source="40E514p9lk34ZQ-6T4XH-22" target="40E514p9lk34ZQ-6T4XH-51" edge="1">
          <mxGeometry x="-0.0045" relative="1" as="geometry">
            <mxPoint x="310.21000000000004" y="705" as="sourcePoint" />
            <mxPoint as="offset" />
          </mxGeometry>
        </mxCell>
        <mxCell id="40E514p9lk34ZQ-6T4XH-56" value="returnRegistration" style="html=1;verticalAlign=bottom;endArrow=open;dashed=1;endSize=8;curved=0;rounded=0;exitX=0;exitY=1;exitDx=0;exitDy=-5;" parent="1" source="40E514p9lk34ZQ-6T4XH-54" target="40E514p9lk34ZQ-6T4XH-51" edge="1">
          <mxGeometry relative="1" as="geometry">
            <mxPoint x="420" y="785" as="targetPoint" />
            <Array as="points" />
          </mxGeometry>
        </mxCell>
        <mxCell id="40E514p9lk34ZQ-6T4XH-55" value="confirmRegistration" style="html=1;verticalAlign=bottom;endArrow=block;curved=0;rounded=0;entryX=0;entryY=0;entryDx=0;entryDy=5;" parent="1" source="40E514p9lk34ZQ-6T4XH-51" target="40E514p9lk34ZQ-6T4XH-54" edge="1">
          <mxGeometry relative="1" as="geometry">
            <mxPoint x="420" y="715" as="sourcePoint" />
          </mxGeometry>
        </mxCell>
        <mxCell id="EQx8MTl09Lf4hyHn_s3z-1" value="alt" style="shape=umlFrame;whiteSpace=wrap;html=1;pointerEvents=0;" vertex="1" parent="1">
          <mxGeometry x="80" y="720" width="470" height="490" as="geometry" />
        </mxCell>
        <mxCell id="EQx8MTl09Lf4hyHn_s3z-4" value="createRental" style="html=1;align=left;spacingLeft=2;endArrow=block;rounded=0;edgeStyle=orthogonalEdgeStyle;curved=0;rounded=0;" edge="1" parent="1">
          <mxGeometry relative="1" as="geometry">
            <mxPoint x="390" y="749.97" as="sourcePoint" />
            <Array as="points">
              <mxPoint x="420" y="779.97" />
            </Array>
            <mxPoint x="395" y="780.0044827586207" as="targetPoint" />
          </mxGeometry>
        </mxCell>
        <mxCell id="EQx8MTl09Lf4hyHn_s3z-6" value="searchDataBank" style="html=1;verticalAlign=bottom;endArrow=block;curved=0;rounded=0;entryX=0;entryY=0;entryDx=0;entryDy=5;" edge="1" target="EQx8MTl09Lf4hyHn_s3z-5" parent="1">
          <mxGeometry relative="1" as="geometry">
            <mxPoint x="400" y="815" as="sourcePoint" />
          </mxGeometry>
        </mxCell>
        <mxCell id="EQx8MTl09Lf4hyHn_s3z-7" value="failReturn" style="html=1;verticalAlign=bottom;endArrow=open;dashed=1;endSize=8;curved=0;rounded=0;exitX=0;exitY=1;exitDx=0;exitDy=-5;" edge="1" source="EQx8MTl09Lf4hyHn_s3z-5" parent="1">
          <mxGeometry relative="1" as="geometry">
            <mxPoint x="390" y="835" as="targetPoint" />
          </mxGeometry>
        </mxCell>
        <mxCell id="EQx8MTl09Lf4hyHn_s3z-8" value="frame" style="shape=umlFrame;whiteSpace=wrap;html=1;pointerEvents=0;" vertex="1" parent="1">
          <mxGeometry x="130" y="820" width="390" height="60" as="geometry" />
        </mxCell>
        <mxCell id="EQx8MTl09Lf4hyHn_s3z-11" value="requestData" style="html=1;verticalAlign=bottom;endArrow=open;dashed=1;endSize=8;curved=0;rounded=0;exitX=0;exitY=1;exitDx=0;exitDy=-5;" edge="1" parent="1">
          <mxGeometry relative="1" as="geometry">
            <mxPoint x="270" y="850" as="targetPoint" />
            <mxPoint x="380" y="850" as="sourcePoint" />
          </mxGeometry>
        </mxCell>
        <mxCell id="EQx8MTl09Lf4hyHn_s3z-12" value="requestData" style="html=1;verticalAlign=bottom;endArrow=open;dashed=1;endSize=8;curved=0;rounded=0;exitX=0;exitY=1;exitDx=0;exitDy=-5;" edge="1" parent="1" target="40E514p9lk34ZQ-6T4XH-21">
          <mxGeometry relative="1" as="geometry">
            <mxPoint x="160" y="870" as="targetPoint" />
            <mxPoint x="260" y="870" as="sourcePoint" />
          </mxGeometry>
        </mxCell>
        <mxCell id="EQx8MTl09Lf4hyHn_s3z-14" value="" style="line;strokeWidth=1;fillColor=none;align=left;verticalAlign=middle;spacingTop=-1;spacingLeft=3;spacingRight=3;rotatable=0;labelPosition=right;points=[];portConstraint=eastwest;strokeColor=inherit;" vertex="1" parent="1">
          <mxGeometry x="80" y="890" width="470" height="13.33" as="geometry" />
        </mxCell>
        <mxCell id="EQx8MTl09Lf4hyHn_s3z-18" value="" style="html=1;points=[[0,0,0,0,5],[0,1,0,0,-5],[1,0,0,0,5],[1,1,0,0,-5]];perimeter=orthogonalPerimeter;outlineConnect=0;targetShapes=umlLifeline;portConstraint=eastwest;newEdgeStyle={&quot;curved&quot;:0,&quot;rounded&quot;:0};" vertex="1" parent="1">
          <mxGeometry x="380" y="810" width="10" height="40" as="geometry" />
        </mxCell>
        <mxCell id="EQx8MTl09Lf4hyHn_s3z-19" value="requestData" style="html=1;verticalAlign=bottom;endArrow=open;dashed=1;endSize=8;curved=0;rounded=0;exitX=0;exitY=1;exitDx=0;exitDy=-5;" edge="1" parent="1">
          <mxGeometry relative="1" as="geometry">
            <mxPoint x="268.5" y="934" as="targetPoint" />
            <mxPoint x="378.5" y="934" as="sourcePoint" />
          </mxGeometry>
        </mxCell>
        <mxCell id="EQx8MTl09Lf4hyHn_s3z-20" value="requestData" style="html=1;verticalAlign=bottom;endArrow=open;dashed=1;endSize=8;curved=0;rounded=0;exitX=0;exitY=1;exitDx=0;exitDy=-5;" edge="1" parent="1">
          <mxGeometry relative="1" as="geometry">
            <mxPoint x="153.5" y="950" as="targetPoint" />
            <mxPoint x="258.5" y="950" as="sourcePoint" />
          </mxGeometry>
        </mxCell>
        <mxCell id="EQx8MTl09Lf4hyHn_s3z-21" value="" style="line;strokeWidth=1;fillColor=none;align=left;verticalAlign=middle;spacingTop=-1;spacingLeft=3;spacingRight=3;rotatable=0;labelPosition=right;points=[];portConstraint=eastwest;strokeColor=inherit;" vertex="1" parent="1">
          <mxGeometry x="80" y="960" width="470" height="15.33" as="geometry" />
        </mxCell>
        <mxCell id="EQx8MTl09Lf4hyHn_s3z-23" value="enterBankData" style="html=1;verticalAlign=bottom;endArrow=block;curved=0;rounded=0;entryX=0;entryY=0;entryDx=0;entryDy=5;" edge="1" target="EQx8MTl09Lf4hyHn_s3z-22" parent="1" source="AW41BKSZvpYnNZ8wh0pO-1">
          <mxGeometry relative="1" as="geometry">
            <mxPoint x="190" y="1005" as="sourcePoint" />
          </mxGeometry>
        </mxCell>
        <mxCell id="EQx8MTl09Lf4hyHn_s3z-31" value="getData" style="html=1;verticalAlign=bottom;endArrow=block;curved=0;rounded=0;entryX=0;entryY=0;entryDx=0;entryDy=5;" edge="1" target="EQx8MTl09Lf4hyHn_s3z-30" parent="1">
          <mxGeometry relative="1" as="geometry">
            <mxPoint x="270" y="1015" as="sourcePoint" />
          </mxGeometry>
        </mxCell>
        <mxCell id="EQx8MTl09Lf4hyHn_s3z-34" value="enterData" style="html=1;verticalAlign=bottom;endArrow=block;curved=0;rounded=0;entryX=0;entryY=0;entryDx=0;entryDy=5;" edge="1" target="EQx8MTl09Lf4hyHn_s3z-33" parent="1" source="EQx8MTl09Lf4hyHn_s3z-30">
          <mxGeometry relative="1" as="geometry">
            <mxPoint x="425" y="1025" as="sourcePoint" />
          </mxGeometry>
        </mxCell>
        <mxCell id="EQx8MTl09Lf4hyHn_s3z-35" value="return" style="html=1;verticalAlign=bottom;endArrow=open;dashed=1;endSize=8;curved=0;rounded=0;exitX=0;exitY=1;exitDx=0;exitDy=-5;" edge="1" source="EQx8MTl09Lf4hyHn_s3z-33" parent="1" target="EQx8MTl09Lf4hyHn_s3z-30">
          <mxGeometry relative="1" as="geometry">
            <mxPoint x="425" y="1095" as="targetPoint" />
          </mxGeometry>
        </mxCell>
        <mxCell id="EQx8MTl09Lf4hyHn_s3z-32" value="requestPay" style="html=1;verticalAlign=bottom;endArrow=open;dashed=1;endSize=8;curved=0;rounded=0;exitX=0;exitY=1;exitDx=0;exitDy=-5;" edge="1" parent="1">
          <mxGeometry relative="1" as="geometry">
            <mxPoint x="270" y="1060" as="targetPoint" />
            <mxPoint x="380" y="1060" as="sourcePoint" />
          </mxGeometry>
        </mxCell>
        <mxCell id="EQx8MTl09Lf4hyHn_s3z-24" value="requestPay" style="html=1;verticalAlign=bottom;endArrow=open;dashed=1;endSize=8;curved=0;rounded=0;exitX=0;exitY=1;exitDx=0;exitDy=-5;" edge="1" parent="1" target="40E514p9lk34ZQ-6T4XH-21">
          <mxGeometry relative="1" as="geometry">
            <mxPoint x="160" y="1070" as="targetPoint" />
            <mxPoint x="260" y="1070" as="sourcePoint" />
          </mxGeometry>
        </mxCell>
        <mxCell id="EQx8MTl09Lf4hyHn_s3z-37" value="enterPay" style="html=1;verticalAlign=bottom;endArrow=block;curved=0;rounded=0;entryX=0;entryY=0;entryDx=0;entryDy=5;" edge="1" target="EQx8MTl09Lf4hyHn_s3z-36" parent="1" source="40E514p9lk34ZQ-6T4XH-21">
          <mxGeometry relative="1" as="geometry">
            <mxPoint x="190" y="1105" as="sourcePoint" />
          </mxGeometry>
        </mxCell>
        <mxCell id="EQx8MTl09Lf4hyHn_s3z-42" value="requestConfirm" style="html=1;verticalAlign=bottom;endArrow=block;curved=0;rounded=0;entryX=0;entryY=0;entryDx=0;entryDy=5;" edge="1" parent="1">
          <mxGeometry relative="1" as="geometry">
            <mxPoint x="270" y="1110" as="sourcePoint" />
            <mxPoint x="380" y="1110" as="targetPoint" />
          </mxGeometry>
        </mxCell>
        <mxCell id="EQx8MTl09Lf4hyHn_s3z-44" value="getConfirm" style="html=1;verticalAlign=bottom;endArrow=block;curved=0;rounded=0;" edge="1" target="EQx8MTl09Lf4hyHn_s3z-43" parent="1">
          <mxGeometry relative="1" as="geometry">
            <mxPoint x="390" y="1125" as="sourcePoint" />
            <mxPoint x="490" y="1125" as="targetPoint" />
          </mxGeometry>
        </mxCell>
        <mxCell id="EQx8MTl09Lf4hyHn_s3z-45" value="returnConfirmPay" style="html=1;verticalAlign=bottom;endArrow=open;dashed=1;endSize=8;curved=0;rounded=0;exitX=0;exitY=1;exitDx=0;exitDy=-5;" edge="1" parent="1" target="EQx8MTl09Lf4hyHn_s3z-39">
          <mxGeometry relative="1" as="geometry">
            <mxPoint x="425" y="1155" as="targetPoint" />
            <mxPoint x="495" y="1160" as="sourcePoint" />
          </mxGeometry>
        </mxCell>
        <mxCell id="EQx8MTl09Lf4hyHn_s3z-41" value="returnConfirmPay" style="html=1;verticalAlign=bottom;endArrow=open;dashed=1;endSize=8;curved=0;rounded=0;exitX=0;exitY=1;exitDx=0;exitDy=-5;" edge="1" source="EQx8MTl09Lf4hyHn_s3z-39" parent="1" target="AW41BKSZvpYnNZ8wh0pO-12">
          <mxGeometry relative="1" as="geometry">
            <mxPoint x="310" y="1185" as="targetPoint" />
          </mxGeometry>
        </mxCell>
        <mxCell id="EQx8MTl09Lf4hyHn_s3z-38" value="confirmPay" style="html=1;verticalAlign=bottom;endArrow=open;dashed=1;endSize=8;curved=0;rounded=0;exitX=0;exitY=1;exitDx=0;exitDy=-5;" edge="1" source="EQx8MTl09Lf4hyHn_s3z-36" parent="1" target="AW41BKSZvpYnNZ8wh0pO-1">
          <mxGeometry relative="1" as="geometry">
            <mxPoint x="190" y="1175" as="targetPoint" />
          </mxGeometry>
        </mxCell>
        <mxCell id="EQx8MTl09Lf4hyHn_s3z-16" value="failReturnRegistration" style="html=1;verticalAlign=bottom;endArrow=open;dashed=1;endSize=8;curved=0;rounded=0;exitX=0;exitY=1;exitDx=0;exitDy=-5;" edge="1" parent="1">
          <mxGeometry relative="1" as="geometry">
            <mxPoint x="390.21000000000004" y="919" as="targetPoint" />
            <Array as="points" />
            <mxPoint x="495" y="919" as="sourcePoint" />
          </mxGeometry>
        </mxCell>
        <mxCell id="EQx8MTl09Lf4hyHn_s3z-47" value="" style="shape=umlLifeline;perimeter=lifelinePerimeter;whiteSpace=wrap;html=1;container=1;dropTarget=0;collapsible=0;recursiveResize=0;outlineConnect=0;portConstraint=eastwest;newEdgeStyle={&quot;curved&quot;:0,&quot;rounded&quot;:0};participant=umlControl;" vertex="1" parent="1">
          <mxGeometry x="927" y="78" width="40" height="1210" as="geometry" />
        </mxCell>
        <mxCell id="EQx8MTl09Lf4hyHn_s3z-83" value="" style="html=1;points=[[0,0,0,0,5],[0,1,0,0,-5],[1,0,0,0,5],[1,1,0,0,-5]];perimeter=orthogonalPerimeter;outlineConnect=0;targetShapes=umlLifeline;portConstraint=eastwest;newEdgeStyle={&quot;curved&quot;:0,&quot;rounded&quot;:0};" vertex="1" parent="EQx8MTl09Lf4hyHn_s3z-47">
          <mxGeometry x="13" y="162" width="10" height="68" as="geometry" />
        </mxCell>
        <mxCell id="EQx8MTl09Lf4hyHn_s3z-94" value="" style="html=1;points=[[0,0,0,0,5],[0,1,0,0,-5],[1,0,0,0,5],[1,1,0,0,-5]];perimeter=orthogonalPerimeter;outlineConnect=0;targetShapes=umlLifeline;portConstraint=eastwest;newEdgeStyle={&quot;curved&quot;:0,&quot;rounded&quot;:0};" vertex="1" parent="EQx8MTl09Lf4hyHn_s3z-47">
          <mxGeometry x="13" y="267" width="10" height="53" as="geometry" />
        </mxCell>
        <mxCell id="EQx8MTl09Lf4hyHn_s3z-103" value="" style="html=1;points=[[0,0,0,0,5],[0,1,0,0,-5],[1,0,0,0,5],[1,1,0,0,-5]];perimeter=orthogonalPerimeter;outlineConnect=0;targetShapes=umlLifeline;portConstraint=eastwest;newEdgeStyle={&quot;curved&quot;:0,&quot;rounded&quot;:0};" vertex="1" parent="EQx8MTl09Lf4hyHn_s3z-47">
          <mxGeometry x="13" y="392" width="10" height="298" as="geometry" />
        </mxCell>
        <mxCell id="EQx8MTl09Lf4hyHn_s3z-105" value="return" style="html=1;verticalAlign=bottom;endArrow=open;dashed=1;endSize=8;curved=0;rounded=0;exitX=0;exitY=1;exitDx=0;exitDy=-5;" edge="1" source="EQx8MTl09Lf4hyHn_s3z-103" parent="EQx8MTl09Lf4hyHn_s3z-47">
          <mxGeometry relative="1" as="geometry">
            <mxPoint x="-67" y="702" as="targetPoint" />
          </mxGeometry>
        </mxCell>
        <mxCell id="EQx8MTl09Lf4hyHn_s3z-61" value="" style="shape=umlLifeline;perimeter=lifelinePerimeter;whiteSpace=wrap;html=1;container=1;dropTarget=0;collapsible=0;recursiveResize=0;outlineConnect=0;portConstraint=eastwest;newEdgeStyle={&quot;curved&quot;:0,&quot;rounded&quot;:0};participant=umlEntity;" vertex="1" parent="1">
          <mxGeometry x="1042" y="78" width="40" height="1210" as="geometry" />
        </mxCell>
        <mxCell id="EQx8MTl09Lf4hyHn_s3z-97" value="" style="html=1;points=[[0,0,0,0,5],[0,1,0,0,-5],[1,0,0,0,5],[1,1,0,0,-5]];perimeter=orthogonalPerimeter;outlineConnect=0;targetShapes=umlLifeline;portConstraint=eastwest;newEdgeStyle={&quot;curved&quot;:0,&quot;rounded&quot;:0};" vertex="1" parent="EQx8MTl09Lf4hyHn_s3z-61">
          <mxGeometry x="14" y="273" width="10" height="37" as="geometry" />
        </mxCell>
        <mxCell id="EQx8MTl09Lf4hyHn_s3z-68" value="" style="shape=umlLifeline;perimeter=lifelinePerimeter;whiteSpace=wrap;html=1;container=1;dropTarget=0;collapsible=0;recursiveResize=0;outlineConnect=0;portConstraint=eastwest;newEdgeStyle={&quot;curved&quot;:0,&quot;rounded&quot;:0};participant=umlBoundary;" vertex="1" parent="1">
          <mxGeometry x="802" y="78" width="50" height="1210" as="geometry" />
        </mxCell>
        <mxCell id="EQx8MTl09Lf4hyHn_s3z-75" value="" style="html=1;points=[[0,0,0,0,5],[0,1,0,0,-5],[1,0,0,0,5],[1,1,0,0,-5]];perimeter=orthogonalPerimeter;outlineConnect=0;targetShapes=umlLifeline;portConstraint=eastwest;newEdgeStyle={&quot;curved&quot;:0,&quot;rounded&quot;:0};" vertex="1" parent="EQx8MTl09Lf4hyHn_s3z-68">
          <mxGeometry x="21" y="72" width="9" height="378" as="geometry" />
        </mxCell>
        <mxCell id="EQx8MTl09Lf4hyHn_s3z-78" value="" style="shape=umlLifeline;perimeter=lifelinePerimeter;whiteSpace=wrap;html=1;container=1;dropTarget=0;collapsible=0;recursiveResize=0;outlineConnect=0;portConstraint=eastwest;newEdgeStyle={&quot;curved&quot;:0,&quot;rounded&quot;:0};participant=umlActor;" vertex="1" parent="1">
          <mxGeometry x="672" y="78" width="20" height="1232" as="geometry" />
        </mxCell>
        <mxCell id="EQx8MTl09Lf4hyHn_s3z-82" value="" style="html=1;points=[[0,0,0,0,5],[0,1,0,0,-5],[1,0,0,0,5],[1,1,0,0,-5]];perimeter=orthogonalPerimeter;outlineConnect=0;targetShapes=umlLifeline;portConstraint=eastwest;newEdgeStyle={&quot;curved&quot;:0,&quot;rounded&quot;:0};" vertex="1" parent="EQx8MTl09Lf4hyHn_s3z-78">
          <mxGeometry x="5" y="72" width="10" height="1148" as="geometry" />
        </mxCell>
        <mxCell id="EQx8MTl09Lf4hyHn_s3z-76" value="alquilarCoche()" style="html=1;verticalAlign=bottom;endArrow=block;curved=0;rounded=0;entryX=0;entryY=0;entryDx=0;entryDy=5;" edge="1" target="EQx8MTl09Lf4hyHn_s3z-75" parent="1" source="EQx8MTl09Lf4hyHn_s3z-82">
          <mxGeometry relative="1" as="geometry">
            <mxPoint x="753" y="155" as="sourcePoint" />
          </mxGeometry>
        </mxCell>
        <mxCell id="EQx8MTl09Lf4hyHn_s3z-80" value="solicitarDatos()" style="html=1;verticalAlign=bottom;endArrow=block;curved=0;rounded=0;" edge="1" target="EQx8MTl09Lf4hyHn_s3z-78" parent="1">
          <mxGeometry relative="1" as="geometry">
            <mxPoint x="823" y="188" as="sourcePoint" />
            <mxPoint x="735.4004975124378" y="188" as="targetPoint" />
          </mxGeometry>
        </mxCell>
        <mxCell id="EQx8MTl09Lf4hyHn_s3z-81" value="caracteristicas" style="html=1;verticalAlign=bottom;endArrow=open;dashed=1;endSize=8;curved=0;rounded=0;" edge="1" parent="1">
          <mxGeometry relative="1" as="geometry">
            <mxPoint x="820.5" y="230" as="targetPoint" />
            <mxPoint x="694" y="230" as="sourcePoint" />
          </mxGeometry>
        </mxCell>
        <mxCell id="EQx8MTl09Lf4hyHn_s3z-84" value="buscarVehÃ­culos" style="html=1;verticalAlign=bottom;endArrow=block;curved=0;rounded=0;entryX=0;entryY=0;entryDx=0;entryDy=5;" edge="1" target="EQx8MTl09Lf4hyHn_s3z-83" parent="1" source="EQx8MTl09Lf4hyHn_s3z-68">
          <mxGeometry relative="1" as="geometry">
            <mxPoint x="870" y="245" as="sourcePoint" />
          </mxGeometry>
        </mxCell>
        <mxCell id="EQx8MTl09Lf4hyHn_s3z-86" value="" style="html=1;points=[[0,0,0,0,5],[0,1,0,0,-5],[1,0,0,0,5],[1,1,0,0,-5]];perimeter=orthogonalPerimeter;outlineConnect=0;targetShapes=umlLifeline;portConstraint=eastwest;newEdgeStyle={&quot;curved&quot;:0,&quot;rounded&quot;:0};" vertex="1" parent="1">
          <mxGeometry x="1060" y="256" width="10" height="34" as="geometry" />
        </mxCell>
        <mxCell id="EQx8MTl09Lf4hyHn_s3z-87" value="buscarVehÃ­culos" style="html=1;verticalAlign=bottom;endArrow=block;curved=0;rounded=0;entryX=0;entryY=0;entryDx=0;entryDy=5;" edge="1" target="EQx8MTl09Lf4hyHn_s3z-86" parent="1" source="EQx8MTl09Lf4hyHn_s3z-47">
          <mxGeometry relative="1" as="geometry">
            <mxPoint x="990" y="261" as="sourcePoint" />
          </mxGeometry>
        </mxCell>
        <mxCell id="EQx8MTl09Lf4hyHn_s3z-88" value="vehÃ­culos" style="html=1;verticalAlign=bottom;endArrow=open;dashed=1;endSize=8;curved=0;rounded=0;exitX=0;exitY=1;exitDx=0;exitDy=-5;" edge="1" source="EQx8MTl09Lf4hyHn_s3z-86" parent="1" target="EQx8MTl09Lf4hyHn_s3z-47">
          <mxGeometry x="-0.1179" y="-5" relative="1" as="geometry">
            <mxPoint x="990" y="331" as="targetPoint" />
            <mxPoint as="offset" />
          </mxGeometry>
        </mxCell>
        <mxCell id="EQx8MTl09Lf4hyHn_s3z-85" value="vehÃ­culos" style="html=1;verticalAlign=bottom;endArrow=open;dashed=1;endSize=8;curved=0;rounded=0;exitX=0;exitY=1;exitDx=0;exitDy=-5;" edge="1" source="EQx8MTl09Lf4hyHn_s3z-83" parent="1" target="EQx8MTl09Lf4hyHn_s3z-68">
          <mxGeometry relative="1" as="geometry">
            <mxPoint x="870" y="315" as="targetPoint" />
          </mxGeometry>
        </mxCell>
        <mxCell id="EQx8MTl09Lf4hyHn_s3z-90" value="seleccionar(listaVehÃ­culo)" style="html=1;verticalAlign=bottom;endArrow=block;curved=0;rounded=0;" edge="1" target="EQx8MTl09Lf4hyHn_s3z-78" parent="1">
          <mxGeometry relative="1" as="geometry">
            <mxPoint x="820" y="315" as="sourcePoint" />
            <mxPoint x="750.0000000000005" y="315" as="targetPoint" />
          </mxGeometry>
        </mxCell>
        <mxCell id="EQx8MTl09Lf4hyHn_s3z-91" value="vehÃ­culosSeleccionado" style="html=1;verticalAlign=bottom;endArrow=open;dashed=1;endSize=8;curved=0;rounded=0;" edge="1" parent="1">
          <mxGeometry relative="1" as="geometry">
            <mxPoint x="820" y="342" as="targetPoint" />
            <mxPoint x="681.893939393939" y="342" as="sourcePoint" />
          </mxGeometry>
        </mxCell>
        <mxCell id="EQx8MTl09Lf4hyHn_s3z-95" value="buscarExtas" style="html=1;verticalAlign=bottom;endArrow=block;curved=0;rounded=0;entryX=0;entryY=0;entryDx=0;entryDy=5;" edge="1" target="EQx8MTl09Lf4hyHn_s3z-94" parent="1" source="EQx8MTl09Lf4hyHn_s3z-68">
          <mxGeometry relative="1" as="geometry">
            <mxPoint x="870" y="350" as="sourcePoint" />
          </mxGeometry>
        </mxCell>
        <mxCell id="EQx8MTl09Lf4hyHn_s3z-96" value="extras" style="html=1;verticalAlign=bottom;endArrow=open;dashed=1;endSize=8;curved=0;rounded=0;exitX=0;exitY=1;exitDx=0;exitDy=-5;" edge="1" source="EQx8MTl09Lf4hyHn_s3z-94" parent="1" target="EQx8MTl09Lf4hyHn_s3z-68">
          <mxGeometry relative="1" as="geometry">
            <mxPoint x="870" y="420" as="targetPoint" />
          </mxGeometry>
        </mxCell>
        <mxCell id="EQx8MTl09Lf4hyHn_s3z-99" value="return" style="html=1;verticalAlign=bottom;endArrow=open;dashed=1;endSize=8;curved=0;rounded=0;exitX=0;exitY=1;exitDx=0;exitDy=-5;" edge="1" source="EQx8MTl09Lf4hyHn_s3z-97" parent="1" target="EQx8MTl09Lf4hyHn_s3z-47">
          <mxGeometry relative="1" as="geometry">
            <mxPoint x="990" y="426" as="targetPoint" />
          </mxGeometry>
        </mxCell>
        <mxCell id="EQx8MTl09Lf4hyHn_s3z-98" value="buscarExtas" style="html=1;verticalAlign=bottom;endArrow=block;curved=0;rounded=0;entryX=0;entryY=0;entryDx=0;entryDy=5;" edge="1" target="EQx8MTl09Lf4hyHn_s3z-97" parent="1" source="EQx8MTl09Lf4hyHn_s3z-47">
          <mxGeometry relative="1" as="geometry">
            <mxPoint x="990" y="356" as="sourcePoint" />
          </mxGeometry>
        </mxCell>
        <mxCell id="EQx8MTl09Lf4hyHn_s3z-100" value="seleccionar(Extras)" style="html=1;verticalAlign=bottom;endArrow=block;curved=0;rounded=0;" edge="1" parent="1">
          <mxGeometry relative="1" as="geometry">
            <mxPoint x="827.11" y="422.13" as="sourcePoint" />
            <mxPoint x="689.11" y="422.13" as="targetPoint" />
          </mxGeometry>
        </mxCell>
        <mxCell id="EQx8MTl09Lf4hyHn_s3z-101" value="extrasSeleccionado" style="html=1;verticalAlign=bottom;endArrow=open;dashed=1;endSize=8;curved=0;rounded=0;" edge="1" parent="1">
          <mxGeometry relative="1" as="geometry">
            <mxPoint x="827.11" y="449.13" as="targetPoint" />
            <mxPoint x="689.003939393939" y="449.13" as="sourcePoint" />
          </mxGeometry>
        </mxCell>
        <mxCell id="EQx8MTl09Lf4hyHn_s3z-104" value="completarAlquiler()" style="html=1;verticalAlign=bottom;endArrow=block;curved=0;rounded=0;entryX=0;entryY=0;entryDx=0;entryDy=5;" edge="1" target="EQx8MTl09Lf4hyHn_s3z-103" parent="1" source="EQx8MTl09Lf4hyHn_s3z-68">
          <mxGeometry relative="1" as="geometry">
            <mxPoint x="870" y="475" as="sourcePoint" />
          </mxGeometry>
        </mxCell>
        <mxCell id="EQx8MTl09Lf4hyHn_s3z-106" value="ref" style="shape=umlFrame;whiteSpace=wrap;html=1;pointerEvents=0;" vertex="1" parent="1">
          <mxGeometry x="870" y="490" width="230" height="40" as="geometry" />
        </mxCell>
        <mxCell id="EQx8MTl09Lf4hyHn_s3z-107" value="comprobarAlta" style="text;html=1;align=center;verticalAlign=middle;resizable=0;points=[];autosize=1;strokeColor=none;fillColor=none;" vertex="1" parent="1">
          <mxGeometry x="960" y="495" width="100" height="30" as="geometry" />
        </mxCell>
        <mxCell id="EQx8MTl09Lf4hyHn_s3z-108" value="opt" style="shape=umlFrame;whiteSpace=wrap;html=1;pointerEvents=0;" vertex="1" parent="1">
          <mxGeometry x="870" y="560" width="270" height="110" as="geometry" />
        </mxCell>
        <mxCell id="EQx8MTl09Lf4hyHn_s3z-109" value="alta" style="text;html=1;align=center;verticalAlign=middle;resizable=0;points=[];autosize=1;strokeColor=none;fillColor=none;" vertex="1" parent="1">
          <mxGeometry x="874" y="597" width="40" height="30" as="geometry" />
        </mxCell>
        <mxCell id="EQx8MTl09Lf4hyHn_s3z-110" value="ref" style="shape=umlFrame;whiteSpace=wrap;html=1;pointerEvents=0;" vertex="1" parent="1">
          <mxGeometry x="920" y="600" width="200" height="60" as="geometry" />
        </mxCell>
        <mxCell id="EQx8MTl09Lf4hyHn_s3z-111" value="alta" style="text;html=1;align=center;verticalAlign=middle;resizable=0;points=[];autosize=1;strokeColor=none;fillColor=none;" vertex="1" parent="1">
          <mxGeometry x="1000" y="608" width="40" height="30" as="geometry" />
        </mxCell>
      </root>
    </mxGraphModel>
  </diagram>
</mxfile>
